# xmcd CD database file
#
# Track frame offsets:
#	150
#	22501
#	41007
#	58344
#	82127
#	99437
#	120920
#	144687
#	166423
#	188210
#	204373
#	225508
#
# Disc length: 3215 seconds
#
# Revision: 2
# Processed by: cddbd v1.5.2PL0 Copyright (c) Steve Scherf et al.
# Submitted via: CDex 1.70beta2
#
DISCID=970c8d0c
DTITLE=Bernard Allison - Let It Go
DYEAR=2018
DGENRE=Blues
TTITLE0=Crusin for a Bluesin
TTITLE1=Same Ole Feeling
TTITLE2=Backdoor Man
TTITLE3=Let It Go
TTITLE4=Night Train
TTITLE5=Kiddio
TTITLE6=Leave Your Ego
TTITLE7=Blues Party
TTITLE8=Hey Lady
TTITLE9=Look out Mabel
TTITLE10=You're Gonna Need Me
TTITLE11=Castle
EXTD=YEAR: 2018
EXTT0=
EXTT1=
EXTT2=
EXTT3=
EXTT4=
EXTT5=
EXTT6=
EXTT7=
EXTT8=
EXTT9=
EXTT10=
EXTT11=
PLAYORDER=
